# xmcd CD database file
#
# Track frame offsets:
#	150
#	25965
#	41074
#	63016
#	87080
#	108725
#	125779
#	140956
#	154456
#	178990
#	199607
#	215841
#	231256
#	244498
#	258250
#	273371
#	285563
#	297020
#
# Disc length: 4143 seconds
#
# Revision: 0
# Processed by: cddbd v1.5.2PL0 Copyright (c) Steve Scherf et al.
# Submitted via: CDex 1.70beta2
#
DISCID=23102d12
DTITLE=Eric Clapton - Sessions For Robert J
DYEAR=2004
DGENRE=Blues
TTITLE0=Kind Hearted Woman Blues
TTITLE1=They're Red Hot
TTITLE2=Hell Hound On My Tail
TTITLE3=Sweet Home Chicago
TTITLE4=When You Got A Good Friend
TTITLE5=Milkcow's Calf Blues
TTITLE6=If I Had Possesion Over Judgement Day
TTITLE7=Stop Breakin' Down Blues
TTITLE8=Little Queen Of Spades
TTITLE9=Traveling Riverside Blues
TTITLE10=Terraplane Blues
TTITLE11=Hell Hound On My Trail
TTITLE12=Me And The Devil Blues
TTITLE13=From Four Until Late
TTITLE14=Love In Vain
TTITLE15=Ramblin' On My Mind
TTITLE16=Stones In My Passway
TTITLE17=Love In Vain
EXTD=YEAR: 2004
EXTT0=
EXTT1=
EXTT2=
EXTT3=
EXTT4=
EXTT5=
EXTT6=
EXTT7=
EXTT8=
EXTT9=
EXTT10=
EXTT11=
EXTT12=
EXTT13=
EXTT14=
EXTT15=
EXTT16=
EXTT17=
PLAYORDER=
